<svg width="100%" xmlns="http://www.w3.org/2000/svg" preserveAspectRatio="xMinYMin meet" viewBox="0 0 80 70"><g transform="translate(13, 13)"><g><path stroke="#444" stroke-width="0.25" stroke-linecap="square" stroke-linejoin="square" d="M 0 0 H 50 M 0 12 H 50 M 0 24 H 50 M 0 36 H 50 M 0 48 H 50M 0 0 V 48 M 10 0 V 48 M 20 0 V 48 M 30 0 V 48 M 40 0 V 48 M 50 0 V 48"></path><text font-size="0.25rem" fill="#444" font-family="Verdana" x="-11" y="8">4fr</text><g><text font-size="0.3rem" fill="#444" font-family="Verdana" text-anchor="middle" x="0" y="53">E</text><text font-size="0.3rem" fill="#444" font-family="Verdana" text-anchor="middle" x="10" y="53">A</text><text font-size="0.3rem" fill="#444" font-family="Verdana" text-anchor="middle" x="20" y="53">D</text><text font-size="0.3rem" fill="#444" font-family="Verdana" text-anchor="middle" x="30" y="53">G</text><text font-size="0.3rem" fill="#444" font-family="Verdana" text-anchor="middle" x="40" y="53">B</text><text font-size="0.3rem" fill="#444" font-family="Verdana" text-anchor="middle" x="50" y="53">E</text></g></g><g><circle stroke-width="0.25" stroke="#444" fill="#444" cx="0" cy="6.5" r="4"></circle><text font-size="0.3rem" font-family="Verdana" fill="white" text-anchor="middle" x="0" y="8">1</text></g><text font-size="0.4rem" fill="#444" font-family="Verdana" text-anchor="middle" x="10" y="-2">x</text><g><circle stroke-width="0.25" stroke="#444" fill="#444" cx="20" cy="18" r="4"></circle><text font-size="0.3rem" font-family="Verdana" fill="white" text-anchor="middle" x="20" y="19.75">3</text></g><g><circle stroke-width="0.25" stroke="#444" fill="#444" cx="30" cy="18" r="4"></circle><text font-size="0.3rem" font-family="Verdana" fill="white" text-anchor="middle" x="30" y="19.75">4</text></g><g><circle stroke-width="0.25" stroke="#444" fill="#444" cx="40" cy="6.5" r="4"></circle><text font-size="0.3rem" font-family="Verdana" fill="white" text-anchor="middle" x="40" y="8">2</text></g><text font-size="0.4rem" fill="#444" font-family="Verdana" text-anchor="middle" x="50" y="-2">x</text></g></svg>