<svg width="100%" xmlns="http://www.w3.org/2000/svg" preserveAspectRatio="xMinYMin meet" viewBox="0 0 80 70"><g transform="translate(13, 13)"><g><path stroke="#444" stroke-width="0.25" stroke-linecap="square" stroke-linejoin="square" d="M 0 0 H 50 M 0 12 H 50 M 0 24 H 50 M 0 36 H 50 M 0 48 H 50M 0 0 V 48 M 10 0 V 48 M 20 0 V 48 M 30 0 V 48 M 40 0 V 48 M 50 0 V 48"></path><text font-size="0.4rem" fill="#444" font-family="Verdana" x="-7" y="8">7fr</text><g><text font-size="0.7rem" fill="#444" font-family="Verdana" text-anchor="middle" x="0" y="56">E</text><text font-size="0.7rem" fill="#444" font-family="Verdana" text-anchor="middle" x="10" y="56">A</text><text font-size="0.7rem" fill="#444" font-family="Verdana" text-anchor="middle" x="20" y="56">D</text><text font-size="0.7rem" fill="#444" font-family="Verdana" text-anchor="middle" x="30" y="56">G</text><text font-size="0.7rem" fill="#444" font-family="Verdana" text-anchor="middle" x="40" y="56">B</text><text font-size="0.7rem" fill="#444" font-family="Verdana" text-anchor="middle" x="50" y="56">E</text></g></g><text font-size="0.8rem" fill="#444" font-family="Verdana" text-anchor="middle" x="0" y="-2">x</text><text font-size="0.8rem" fill="#444" font-family="Verdana" text-anchor="middle" x="10" y="-2">x</text><g><circle stroke-width="0.25" stroke="#444" fill="#444" cx="20" cy="6.5" r="4"></circle><text font-size="0.5rem" fill="white" text-anchor="middle" x="20" y="7.75">1</text></g><g><circle stroke-width="0.25" stroke="#444" fill="#444" cx="30" cy="30" r="4"></circle><text font-size="0.5rem" fill="white" text-anchor="middle" x="30" y="31.5">3</text></g><g><circle stroke-width="0.25" stroke="#444" fill="#444" cx="40" cy="18" r="4"></circle><text font-size="0.5rem" fill="white" text-anchor="middle" x="40" y="19.5">2</text></g><g><circle stroke-width="0.25" stroke="#444" fill="#444" cx="50" cy="30" r="4"></circle><text font-size="0.5rem" fill="white" text-anchor="middle" x="50" y="31.5">4</text></g></g></svg>